<svg width="210" height="102" xmlns="http://www.w3.org/2000/svg" xmlns:xlink="http://www.w3.org/1999/xlink"><defs><path d="M1 .5c0-.3.4-.5.7-.3.9.2 1.5.8 2.3 1.2.9.5 2 .7 3 1.1A42 42 0 0111.8 5c1.6 1 3 2.2 4.3 3.5l2.1 2.3.3.3-.2-1.1c0-.2 0-.5.2-.7C20 8 21.8 11 22.7 11.8c1.5 1.5 3 2.7 4.3 4.4.5.6.8 1.4 1.2 2 .2.1.4.3.5.6l.1.2.6-.3c1-.2 1.8.8 2.4 1.5 1 1 1.6 2.3 2.4 3.5l1.2 2.2c0-.4.2-.7.3-1 .3-.5.8-.4 1.1-.1.6.4 1 1 1.5 1.6l.5.7.5.7c.8 1 1.4 2 2 3 .7 1 1.5 2.2 2.3 3.1.4.4.8.7 1.3.9.1 0 .3 0 .4.2l2.2.7c1.1.3 2 .4 2.9 1.1l2 2c1.1 1.2 2.2 2.4 2.5 3.8l.2.1c.3-.3.6-.8 1-1 .6-.5 1.4-.4 2.1-.7.8-.5 1.4.7.7 1.2-1 .4-1.8.3-2.6 1l1.5.4 4.2.9c.6 0 2 .5 2.4.3.8-.3 1.5.9.6 1.3-.6.3-1.3.2-2 0h-.4l-.4-.1c-1.4-.2-2.7-.6-4-.9l-2.2-.4.4.8c.6 1 1 2 1.7 3 .4.7-.8 1.3-1.3.6-.6-1-1-2-1.7-3l-.4-1-.5 1-1.2 1.5c-.9 1-1.8 1.8-3.1 2.2a8 8 0 01-3.7.6c-1.4-.2-2.8-.6-4-1-3.3-1-5.7-2.9-8.4-4.7a12 12 0 00-4.7-1.9h-4a.7.7 0 01-.6-.8c.1-.6.4-1.2.8-1.7-1 0-2.2-.6-3-1-2-1-4.1-2.5-5.6-4.5A74 74 0 005.9 24c-.8-.7-1.9-1.6-2.5-2.5-.6-.8-1-2-1.2-2.9l-.8-3.1c-.3-1.1-.8-2.1-.9-3.3L.3 9V5.7C.4 4.1.2 2 1 .5zm50.5 43.2c0 .2 0 .4-.2.6-.3.6-1 .7-1.6 1l-3.4 1.1c-1.2.4-2.6 1.1-4 1.5l2 .5c1.4.3 2.6.7 4 .3a7.2 7.2 0 004.1-2.7c.4-.5.9-1 1.1-1.5l.2-.3-2.2-.5zm-1.7-.6h-.3c-.5 0-1.2.4-1.8.5l-1.8.4c-1.3.2-2.5 0-3.9 0h-4.4l-2.7-.3.5.4 1 .7c1.1.8 2.2 1.5 3.4 2l.2.2c0-.2.3-.3.6-.4 1.6.1 3.4-1 5-1.4l3-1 1.1-.5c.3-.1.4 0 .4-.2l-.2-.3h-.1zm-15.5-5c-1 0-2 0-3 .2-1.6.4-4 1.4-5 3h2.6a11 11 0 014.3 1.4l.3-.2c1.1-.3 2.5 0 3.6 0 1.5.2 3 .1 4.5.1s3.1.3 4.7 0l.7-.2a76.4 76.4 0 01-9.3-3.7c-.9-.4-2.5-.4-3.4-.5zm12.3-1.4l3.2 4 1 1.3 2.7.6c-.5-1.6-2.2-3.2-3.3-4.2-1-1-2.3-1.3-3.6-1.7zM42.7 35v.3l1 2.2c.2.7.3 1.6.8 2.1l.1.5c1.3.6 2.7 1 4 1.4L47.5 40c-1-1.3-2.2-2.6-3.1-4-.7-.3-1.2-.7-1.7-1.1zm-6-8.3l-.2 1.5c-.3 1.1-.5 2.3-.6 3.5a7 7 0 002 5.4l5 2.3-.3-.6c-.2-.8-.6-1.5-.9-2.3-.2-.4-.3-.9-.3-1.4l-.1-.6c0-.6-.2-1.1-.5-1.6 0-.2-.1-.3 0-.4l-.7-.9-2-3.1-1.5-1.8zm-4.9 8.6l-2.6.2c-1.2 0-2.4.3-3.6.4-1.6 0-3.5.5-5.2.5l.4.3 2.3 1.5c.4.2 2.5 1 3 .7.3-.3.6-.3.8 0 1.2-.9 2.5-1.4 3.6-1.7a11 11 0 014-.3h-.1l-2.6-1.6zM29 23.3l.3 3.4.2 3.2c0 .6 0 1.2-.3 1.6l.5.4 2.6 1.8h.1c.3 0 .5.3.6.5l1.2.8c-1.7-2-2.5-5.1-3.4-7.6a44 44 0 00-1.8-4zm-13.2 8.2l.2.2 2.7 3.1h.4c1.2.3 2.8 0 4-.2 1.1-.1 2.3-.1 3.4-.3 1-.1 1.8-.3 2.8-.3h.9L27.6 32c-.1.2-.3.4-.6.4-2.5 0-4.9-.5-7.3-.6-1 0-1.9-.3-2.8-.4h-1.1zm14-11.5v.6l-.3.4c.2.8.8 1.7 1.2 2.5.6 1.2 1 2.5 1.5 3.7l1.5 3.8.9 2v-1c0-1.3.2-2.5.4-3.8a.6.6 0 01-.2-.3c-.6-1.8-1.7-3.3-2.6-4.9-.5-.8-1-1.6-1.7-2.3l-.6-.7zM20 26.4c-.9 0-1.7.3-2.5.4l-2.1.2h-3.8l2.7 2.8h.2c1 .4 1.9.3 2.8.4 1 0 2 .3 2.9.3 2 0 4 .4 6 .5-1.8-1.2-3.4-2.5-5-3.7l-1.2-.9zM25 16l.5 2.4c0 1.3.2 2.7.4 4 .2 1.2.4 2.5.3 3.7 0 .6-.6 2 0 2.5.2.3.2.6 0 .9l1.8 1.3.1-.1c.2-.3-.2-1.6-.2-2l-.2-2.7-.2-3.8v-2.5l-.8-1.4L25 16zM20 10.7l.1 1c.1.5.4 1 .2 1.5-.1.3-.4.5-.7.5l.2 5.5-.1 2.7c0 .6 0 1.1-.3 1.6l-.3.2a142.5 142.5 0 005.7 4.5V27c.3-1.3.2-2.5 0-3.8l-.4-4.5c-.2-1.3-.6-2.6-.7-4v-.3L20 10.7zM4 19.7c.1.4.3.8.6 1.1.6.8 1.5 1.5 2.2 2.1l3.1 2.6h.3c1.8.1 3.6.3 5.4 0 1 0 1.8-.2 2.7-.3-.6-.5-1.3-1-1.9-1.7l-.4.1c-2.4 0-4.5-.6-6.7-1.5L4 19.7zm12.4-8.8l.2.7c.2.8.1 1.6.2 2.4 0 2.1-.4 4.3-.4 6.4 0 .4-.2.6-.5.6l2 1.9c.4-.6.2-1.8.2-2.4l.1-2.3-.2-4.8.2-.4-1.8-2zM2 1.6C1.5 3 2 5 1.8 6.3c-.1 1.9 0 3.7.1 5.6.2 1.8 1.1 3.8 1.6 5.6v.3l.2.1c2 1.1 4 2 6 2.9 1.8.8 3.5 1.2 5.4 1.4-1.9-1.9-3.5-4-4.8-6.2a86.3 86.3 0 01-3.7-7.2C6 7.6 5.7 6.4 5 5.3a15 15 0 01-1-2.4l-.4-.2c-.6-.3-1.1-.8-1.7-1zm11 5.8v1.1c0 1.1 0 2.1.2 3.2v5.6l-.1.4 2 2.3c0-2.2.4-4.5.3-6.7 0-1-.2-1.7-.3-2.6-.1-.4-.2-.9 0-1.3a27 27 0 00-2.1-2zm-7.2-4L7 6l1.6 3.6c1 2.1 2 4.3 3.3 6.3v-1.2-2.4l-.2-2.6c0-.8.3-1.7 0-2.5-.2-.2-.1-.5 0-.7v-.1C9.8 5.3 8 4.3 6.1 3.5l-.4-.1z" id="a"/></defs><g fill="none" fill-rule="evenodd"><path d="M46 78.2c4-1.3 6.8-4 8.6-8.3 1.5-3.2 2-6.5 2.2-8l1-7.8 4-1.4a2 2 0 001.2-2.6 2 2 0 00-2.6-1.3l-2 .8L60 37a21 21 0 003.8-.9c4.4-1.5 6.6-4 7.2-8 0-1-.7-2-1.8-2.2a2 2 0 00-2.3 1.8c-.3 2-1.1 3.4-4.4 4.6-2.2.7-5.6 1-9.2 1.3-4.5.3-9 .6-12.7 1.9-4 1.3-6 5.6-4.6 9.5a6 6 0 007.8 3.8 2 2 0 001.2-2.6 2 2 0 00-2.6-1.3 2 2 0 01-2.6-1.2c-.6-1.8.3-3.7 2.1-4.3a48.4 48.4 0 0113.9-2L54 51l-4 1.4A2 2 0 0049 55a2 2 0 002.6 1.2l2-.6-.8 5.8c-.6 4.6-2 11-8 13a6 6 0 01-7.7-3.8 8.8 8.8 0 015.5-11.3 2 2 0 001.2-2.5 2 2 0 00-2.6-1.3 13 13 0 00-8 16.4c1.9 5.4 7.6 8.2 13 6.3zM93.8 62a8.5 8.5 0 004.9-4.8c.7-1.6 1-3.3 1-4.1v-.2l.1-.2v-.1-.4l.1-.4.3-2c.1-1-.7-2-1.8-2.2a2 2 0 00-2.3 1.8l-.2 2v.3l-.1.4V52.3c-.3 2-1 4.9-3.4 5.7a2 2 0 01-2.6-1.3c-.1-.5-.2-.8-.1-1.9l.8-6c.2-1.8 0-2.8-.3-3.7-.7-1.8-2-3.1-4-3.7-1.5-.4-3-.4-4.5-.4h-.3c0-.5-.2-1-.3-1.4a3.4 3.4 0 00-4.3-2.1h-.2a3.4 3.4 0 00-2 4.3c.4 1 1 2 2.5 2.7 0 1.1-.3 2.3-.6 3.5a6 6 0 00-7-2.2c-3 1-4.7 4.2-4 7.2-1 0-1.9.7-2 1.8l-1 7.5c-.2 1.8 0 2.8.3 3.7a6 6 0 007.8 3.8 8.5 8.5 0 005-4.7c.7-1.8.9-3.5 1-4.3l.9-6c2.6-2.9 3.3-7 3.7-9.8h.4c3.1 0 4.3.3 4.7 1.4.2.6.3.9.1 2l-.8 6c-.2 1.8 0 2.8.4 3.7a6 6 0 007.8 3.8zM72 53.5a2 2 0 01-2.6-1.3 2 2 0 011.2-2.6 2 2 0 012.6 1.3c.2.5.3.8.2 1.9l-1.4.7zM69 66a2 2 0 01-2.5-1.3c-.2-.5-.3-.8-.2-1.9l1-6.7a6.3 6.3 0 005.5 1.4l-.4 2.8c-.3 2-1 4.8-3.3 5.7zm45.1-11.2a8.5 8.5 0 005-4.7c.7-1.7.9-3.3 1-4.2v-.2-.2h.1V45l.1-.3.3-2c.1-1-.7-2-1.8-2.3a2 2 0 00-2.3 1.8l-.3 2v1c-.3 2-1 4.9-3.4 5.7a2 2 0 01-2.6-1.3c-.1-.4-.3-.7-.2-1.6v-.2-.2l.1-.1v-.2-.5l.1-.4V46l.1-.4.1-.5V45l.1-.6 1-7 .3-2.6.9-6.9.4-3 .2-1.6.4-2.5v-1l1-6.7c.1-1-.7-2-1.8-2.3a2 2 0 00-2.3 1.8l-2.9 22a6 6 0 00-5-.4A8.5 8.5 0 0098 39c-.7 1.7-1 3.4-1 4.3l-1 7.5c-.3 1.8 0 2.8.3 3.7a6 6 0 007.7 3.8c2.1-.7 3.7-2.2 4.8-4.4a6 6 0 005.5.9zm-11.6-.3a2 2 0 01-2.6-1.3c-.1-.5-.3-.8-.1-1.9l1-7.5c.2-2 .9-4.9 3.3-5.7a2 2 0 012.6 1.3c.2.5.3.8.1 1.9v.7l-.1.1v.3l-.1.5-.2 1.2v.7l-.1.7v.3l-.2.8v.7l-.1.5c-.4 2.8-1 5.8-3.5 6.7zm32.2-6.8a8.5 8.5 0 005-4.7c.6-1.7.9-3.3 1-4.2v-.2-.2l.1-.5v-.3l.3-2c.2-1-.6-2-1.8-2.2a2 2 0 00-2.2 1.7l-.4 3c-.3 2.5-1 5-3.3 5.7a2 2 0 01-2.6-1.2c-.2-.6-.3-.9-.2-2l.8-6c.3-1.8 0-2.8-.3-3.7a6 6 0 00-7.8-3.7c-.2 0-.5.1-.7.3l2.4-18c.1-1-.7-2-1.8-2.2A2 2 0 00121 9l-5.6 42.2a2 2 0 001.8 2.2h.9a2 2 0 001.4-1.7l2-15.1c.3-2.4 1-5 3.3-5.7a2 2 0 012.5 1.3c.2.5.3.8.2 1.9l-.8 6c-.2 1.8 0 2.8.3 3.7a6 6 0 007.8 3.8zm10.3-3.6a8.5 8.5 0 005-4.7c.7-1.7.9-3.5 1-4.3l.3-2c.9-.1 1.7-.3 2.6-.7 2.4-.8 4.2-2 5.7-3.4a11 11 0 002.9-6.5c.1-1-.6-2-1.8-2.3a2 2 0 00-2.2 1.8c-.5 3.3-2.3 5.3-6 6.6l-.6.2.1-1.2c.2-1.4 0-2.6-.3-3.7a6.1 6.1 0 00-11.8 3.5c-1 0-1.9.7-2 1.7l-1 7.6c-.3 1.8 0 2.7.3 3.6a6 6 0 007.8 3.8zm2.7-15l-.9-.1c-1-.3-2.3-1-2.8-2.5a2 2 0 011.2-2.6 2 2 0 012.6 1.3c.2.5.3.8.2 1.9l-.1.8-.1.7-.1.6zm-4 11.2a2 2 0 01-2.6-1.3c-.2-.5-.3-.8-.2-1.9l.9-6.5c1 1 2.3 1.8 4 2.3l1.3.3-.1 1.4c-.3 2-1 4.9-3.3 5.7zm32.2-6.8a8.5 8.5 0 004.9-4.7c.7-1.7 1-3.3 1-4.2v-.1l.1-.2v-.1-.4l.1-.4.3-2c.1-1-.7-2-1.8-2.2a2 2 0 00-2.3 1.8l-.2 2v.3l-.1.4v.3c-.3 2-1 4.8-3.4 5.7a2 2 0 01-2.6-1.3c-.1-.5-.2-.8-.1-1.7V26.4 26v-.4h.1V25l.2-.6v-.3-.4l.1-.5v-.5l.1-.4.2-1.5.1-.7v-.3l.4-2.4v-.3l.1-.7.1-.8.2-1.1v-.4l.1-.8v-.5c.2-1-.6-2-1.7-2.2a2 2 0 00-2.3 1.8l-2 15c-.2 2-.9 4.9-3.3 5.7a2 2 0 01-2.5-1.3c-.2-.5-.3-.8-.2-1.9l1.8-13.5c.1-1-.6-2.1-1.8-2.3a2 2 0 00-2.2 1.8l-1.8 13.6c-.3 1.8 0 2.8.3 3.7a6 6 0 007.8 3.8c2-.7 3.7-2.2 4.7-4.4a6 6 0 005.6.8zm10.4-3.6c7.5-2.7 11.2-12 12.2-19.8.2-1-.6-2-1.8-2.2a2 2 0 00-2.2 1.7c-.5 3.6-1.7 7.8-3.6 11l-.1-.1a9.5 9.5 0 00-4.3-4.9c-1.4-1-2.3-1.6-2.7-2.8a2 2 0 011.3-2.6 2 2 0 001.3-2.6 2 2 0 00-2.6-1.3l-.4.2a6.6 6.6 0 00-4 5.4V12.6l-.1.4v.7l-.1.2v.5l-.1.3-.1.6-.1.8v.5l-.2.8-.1 1.2-.2 1.3-.2 1.2a2 2 0 001.8 2.2h1a2 2 0 001.3-1.7l.4-3.6 1.5 1c1.4 1 2.3 1.7 2.7 2.9.6 1.8-.3 3.7-2 4.3a2 2 0 00-1.3 2.6 2 2 0 002.5 1.3h.2zm17.2-5.9c3-1 4.8-4 5.4-5.4a2 2 0 00-1-2.7 2 2 0 00-2.6 1c-.6 1.2-1.8 2.8-3.1 3.2-1.8.7-3.7-.3-4.3-2-.2-.4-.2-.6-.2-1 1-.7 2.8-2 4.5-3.6 1.6-1.5 2.8-3 3.5-4.3 1.1-2 1.4-4 .8-5.7a4.8 4.8 0 00-6-3 8.5 8.5 0 00-5 4.8c-.7 1.8-.9 3.5-1 4.3l-.8 6a7.5 7.5 0 009.8 8.3zm-5.2-12.5l.2-1.4c.3-2.4 1-4.9 3.3-5.7.3 0 .8.1.9.5.4 1.2-.8 3.2-3.3 5.5l-1 1z" fill="#004404" fill-rule="nonzero"/><path d="M40.2 101.8c.6-.2 1-.6 1-1.2L42 94l4.7-1.5a1.4 1.4 0 00.9-1.9 1.4 1.4 0 00-1.9-.9L42.5 91l.5-4.3 6.5-2.2a1.4 1.4 0 00.9-1.8 1.4 1.4 0 00-1.9-1l-7.2 2.6c-.6.2-.9.6-1 1.2l-2 14.8c0 .4.1.8.3 1 .3.4.6.6 1 .6h.6zm17.4-6a5.9 5.9 0 003.5-3.3l.5-1.8.2-1.3.7-5.3c.2-1 0-1.8-.2-2.6-.4-1.2-1.1-2-2.2-2.5-1-.5-2.1-.6-3.3-.2a5.9 5.9 0 00-3.5 3.3l-.5 1.8-.2 1.3-.7 5.3a5.4 5.4 0 00.2 2.6c.4 1.2 1.1 2 2.2 2.5 1 .5 2.1.6 3.3.2zm-1-2.7a1.4 1.4 0 01-1.8-1l-.1-.4v-.8l.7-5.4.2-1.1c0-.4.2-.8.4-1.2l.7-1 1-.7 1.1.1c.4.2.6.5.8.8l.1.5v.9L59 89a11.3 11.3 0 01-.7 2.3c-.1.4-.3.7-.6 1l-1 .7zm17.6-3c.4-.2.6-.5.7-1 .2-.3.1-.7 0-1l-2-3.7a6.3 6.3 0 003.1-7.6c-.4-1.2-1.1-2-2.2-2.5-1-.5-2.1-.6-3.3-.2l-2.7 1c-.6.2-.9.6-1 1.1l-2 15c0 .3.1.6.4 1 .2.3.5.4 1 .5h.6c.5-.3.9-.7 1-1.3l.6-5.4 1.7-.6 2.2 4c.1.4.4.6.7.7.4.2.7.2 1 0h.2zm-3-8.1l-2.4.8.8-5.3 1.9-.7h1c.4.3.7.5.8.9.3.9.2 1.7-.2 2.6-.4.8-1 1.4-1.9 1.7zm16.5 3.4a1.4 1.4 0 001-1.8 1.4 1.4 0 00-1.9-.9l-5 1.7.5-4.2 4.6-1.6a1.4 1.4 0 001-1.8 1.4 1.4 0 00-2-1L82.8 77l.6-4.3 6.4-2.2a1.4 1.4 0 001-1.8 1.4 1.4 0 00-2-.9l-7.2 2.5c-.6.2-.9.6-1 1.2l-2 14.9c0 .4.1.7.4 1 .2.3.5.5 1 .6h.6l7.2-2.6zm11-3.8A5.2 5.2 0 00102 75c-.3-.9-.8-1.6-1.3-2.1L99 71.5l-1.2-1c-.3-.2-.6-.6-.7-1v-1c.2-.4.5-.7.9-.8h1c.4.2.7.5.8.9a1.4 1.4 0 001.9.9 1.4 1.4 0 00.8-1.9c-.4-1.1-1-2-2.1-2.5-1-.5-2.2-.5-3.3-.1-1.2.3-2 1-2.5 2.1-.6 1-.6 2.2-.2 3.3.3 1 .7 1.7 1.3 2.2l1.7 1.3 1.2.9.7 1c.2.7.2 1.3-.1 1.9-.3.6-.8 1-1.4 1.2A1.4 1.4 0 0196 78l-.2-.5v-.8c.1-.4 0-.7-.2-1-.3-.4-.6-.5-1-.6-.4 0-.7 0-1 .3-.3.2-.5.6-.6 1a5.4 5.4 0 00.2 2.6c.4 1.1 1.2 2 2.2 2.5 1 .5 2.2.5 3.3.1zm10.1-3.4c.6-.2 1-.6 1-1.2l1.8-14 2.8-1a1.4 1.4 0 001-1.8 1.4 1.4 0 00-2-1l-7.2 2.6a1.4 1.4 0 00-.9 1.8 1.4 1.4 0 001.9 1l1.4-.6-1.7 12.6c0 .4 0 .8.3 1 .3.4.6.6 1 .6h.6zm22-7.6a5.2 5.2 0 003.3-6.7c-.3-1-.8-1.6-1.4-2.2l-1.6-1.3c-.5-.3-1-.6-1.2-.9-.3-.3-.6-.6-.7-1-.2-.4-.1-.8 0-1.1.2-.4.5-.6.9-.8l1 .1c.4.2.7.5.8.8a1.4 1.4 0 001.8 1 1.4 1.4 0 001-2c-.5-1-1.2-1.9-2.3-2.4-1-.5-2.1-.6-3.3-.2-1.1.4-2 1.1-2.5 2.2-.5 1-.5 2.1-.1 3.3.3 1 .7 1.6 1.3 2.1.6.5 1.1 1 1.7 1.3l1.2 1c.3.2.5.6.7 1 .2.7.1 1.3-.1 1.9-.3.5-.8 1-1.4 1.2a1.4 1.4 0 01-1.9-1v-1.3c0-.3-.1-.7-.4-1-.2-.3-.5-.5-1-.6-.3 0-.7.1-1 .3-.3.3-.5.6-.5 1a5.4 5.4 0 00.2 2.6c.4 1.2 1.1 2 2.2 2.5 1 .5 2.2.6 3.3.2zm12.8-4.4a5.9 5.9 0 003.5-3.4c.3-.6.4-1.2.5-1.7l.3-1.3c0-.4-.1-.7-.3-1-.3-.4-.6-.5-1-.6-.4 0-.7 0-1 .3-.3.2-.5.6-.6 1a11.3 11.3 0 01-.6 2.3l-.7 1c-.2.3-.6.5-1 .7a1.4 1.4 0 01-1.8-1l-.2-.5v-.8l.8-5.3c0-.3 0-.7.2-1.1l.3-1.2.7-1 1-.7h1.2c.3.3.6.5.7.9l.1.5v.8c0 .4 0 .8.3 1 .3.4.6.6 1 .6h.6c.6-.2 1-.6 1-1.2a5.4 5.4 0 00-.3-2.6c-.4-1.2-1-2-2.1-2.5-1.1-.6-2.2-.6-3.4-.2a5.9 5.9 0 00-3.4 3.3l-.6 1.8-.2 1.3-.7 5.3a5.4 5.4 0 00.2 2.6c.4 1.1 1.2 2 2.2 2.5 1 .5 2.2.6 3.3.2zm16.5-5.7c.5-.2.9-.6 1-1.2l1.9-14.9c0-.4 0-.7-.3-1-.2-.3-.6-.5-1-.6-.3 0-.7.1-1 .3-.3.3-.5.6-.6 1l-.8 6.5-4.3 1.5.7-5.2c0-.4 0-.7-.3-1-.2-.3-.5-.5-1-.6-.3 0-.7.1-1 .3-.3.3-.5.6-.5 1l-2 14.9c0 .4 0 .7.3 1 .3.3.6.5 1 .6h.6c.6-.3.9-.7 1-1.3l.8-6.5 4.2-1.5-.6 5.2c0 .4 0 .7.3 1 .2.3.5.5 1 .6h.6zm11-3.8a5.9 5.9 0 003.4-3.3l.6-1.8.2-1.3.7-5.3c.1-.9 0-1.8-.2-2.6-.4-1.1-1.1-2-2.2-2.5-1-.5-2.2-.6-3.3-.2a5.9 5.9 0 00-3.5 3.4l-.5 1.7-.3 1.3-.7 5.3a5.4 5.4 0 00.3 2.7c.4 1.1 1 2 2.1 2.5s2.2.5 3.4.1zm-1-2.7a1.4 1.4 0 01-1.8-.9l-.1-.5v-.8l.7-5.3.2-1.2c0-.4.2-.8.4-1.1.1-.4.4-.8.7-1 .2-.4.6-.6 1-.7.4-.2.7-.1 1.1 0 .4.2.6.5.8.9v.5c.1.1 0 .4 0 .8l-.7 5.3a11.3 11.3 0 01-.6 2.3c-.1.4-.4.7-.6 1l-1 .7zm14.7-2a5.9 5.9 0 003.5-3.3l.5-1.8.2-1.3.7-5.3c.2-1 0-1.8-.2-2.6-.4-1.2-1.1-2-2.2-2.5-1-.5-2.1-.6-3.3-.2a5.9 5.9 0 00-3.5 3.3l-.5 1.8-.2 1.3-.8 5.3a5.4 5.4 0 00.3 2.6c.4 1.2 1.1 2 2.2 2.5 1 .5 2.1.6 3.3.2zm-1-2.7a1.4 1.4 0 01-1.8-1l-.1-.4V47l.7-5.4.2-1.1c0-.4.2-.8.4-1.2l.7-1 1-.7 1.1.1c.4.2.6.5.8.8l.1.5v.9l-.7 5.3a11.3 11.3 0 01-.7 2.3c-.1.4-.3.7-.6 1l-1 .7zm17.4-3a1.4 1.4 0 001-1.8 1.4 1.4 0 00-2-.9l-5 1.8 1.7-12.6c0-.4 0-.8-.3-1-.3-.4-.6-.6-1-.6s-.7 0-1 .3c-.3.2-.5.5-.6 1l-2 14.8c0 .4.1.7.4 1 .2.4.5.5 1 .6h.6l7.2-2.6z" fill="#441C00" fill-rule="nonzero"/><g transform="rotate(35 -28 25.6)"><mask id="b" fill="#fff"><use xlink:href="#a"/></mask><path fill="#040" mask="url(#b)" d="M-15 8.8l28.3-26.4 59.1 63.3-28.3 26.5z"/></g></g></svg>
